<svg xmlns="http://www.w3.org/2000/svg" xmlns:xlink="http://www.w3.org/1999/xlink" fill="none" version="1.1" width="416" height="416" viewBox="0 0 416 416"><defs><clipPath id="master_svg0_1_1"><rect x="0" y="0" width="416" height="416" rx="100"/></clipPath><filter id="master_svg1_1_2389" filterUnits="objectBoundingBox" color-interpolation-filters="sRGB" x="-30" y="-20" width="419.20068359375" height="303.6741638183594"><feFlood flood-opacity="0" result="BackgroundImageFix"/><feColorMatrix in="SourceAlpha" type="matrix" values="0 0 0 0 0 0 0 0 0 0 0 0 0 0 0 0 0 0 127 0"/><feOffset dy="10" dx="0"/><feGaussianBlur stdDeviation="7.5"/><feColorMatrix type="matrix" values="0 0 0 0 0 0 0 0 0 1 0 0 0 0 0.8980392217636108 0 0 0 0.10000000149011612 0"/><feBlend mode="normal" in2="BackgroundImageFix" result="effect1_dropShadow"/><feBlend mode="normal" in="SourceGraphic" in2="effect1_dropShadow" result="shape"/></filter><linearGradient x1="0.5" y1="0" x2="0.5" y2="1" id="master_svg2_1_9859"><stop offset="0%" stop-color="#B700FF" stop-opacity="0.4000000059604645"/><stop offset="100%" stop-color="#F200FF" stop-opacity="0.5600000023841858"/></linearGradient><filter id="master_svg3_1_05" filterUnits="objectBoundingBox" color-interpolation-filters="sRGB" x="-72" y="-58" width="383.40338134765625" height="319.0064392089844"><feFlood flood-opacity="0" result="BackgroundImageFix"/><feColorMatrix in="SourceAlpha" type="matrix" values="0 0 0 0 0 0 0 0 0 0 0 0 0 0 0 0 0 0 127 0"/><feOffset dy="14" dx="0"/><feGaussianBlur stdDeviation="18"/><feColorMatrix type="matrix" values="0 0 0 0 0 0 0 0 0 0.3686274588108063 0 0 0 0 1 0 0 0 0.30000001192092896 0"/><feBlend mode="normal" in2="BackgroundImageFix" result="effect1_dropShadow"/><feBlend mode="normal" in="SourceGraphic" in2="effect1_dropShadow" result="shape"/></filter><linearGradient x1="0.06767107546329498" y1="0.08329781889915466" x2="0.9364975690841675" y2="1.0362588167190552" id="master_svg4_1_1984"><stop offset="0%" stop-color="#00B7FF" stop-opacity="0.3400000035762787"/><stop offset="100%" stop-color="#002BFF" stop-opacity="0.7200000286102295"/></linearGradient><filter id="master_svg5_1_2391" filterUnits="objectBoundingBox" color-interpolation-filters="sRGB" x="-60" y="-56" width="461" height="245"><feFlood flood-opacity="0" result="BackgroundImageFix"/><feColorMatrix in="SourceAlpha" type="matrix" values="0 0 0 0 0 0 0 0 0 0 0 0 0 0 0 0 0 0 127 0"/><feOffset dy="4" dx="0"/><feGaussianBlur stdDeviation="15"/><feColorMatrix type="matrix" values="0 0 0 0 0.30543336272239685 0 0 0 0 1 0 0 0 0 0.733749508857727 0 0 0 0.30000001192092896 0"/><feBlend mode="normal" in2="BackgroundImageFix" result="effect1_dropShadow"/><feBlend mode="normal" in="SourceGraphic" in2="effect1_dropShadow" result="shape"/><feGaussianBlur in="BackgroundImage" stdDeviation="25.5"/><feComposite in2="SourceAlpha" operator="in" result="effect2_foregroundBlur"/><feBlend mode="normal" in="SourceGraphic" in2="effect2_foregroundBlur" result="shape"/></filter><linearGradient x1="0.04179104417562485" y1="-1.5520833730697632" x2="0.9253731369972229" y2="1.2916666269302368" id="master_svg6_1_7422"><stop offset="0%" stop-color="#FFE500" stop-opacity="0.3499999940395355"/><stop offset="0%" stop-color="#F9E406" stop-opacity="0.3618595600128174"/><stop offset="100%" stop-color="#00C8FF" stop-opacity="0.8299999833106995"/></linearGradient></defs><g clip-path="url(#master_svg0_1_1)"><rect x="0" y="0" width="416" height="416" rx="100" fill="#FFFFFF" fill-opacity="1"/><g filter="url(#master_svg1_1_2389)"><g><ellipse cx="379" cy="373" rx="69" ry="69" fill="url(#master_svg2_1_9859)" fill-opacity="1"/></g><g filter="url(#master_svg3_1_05)"><path d="M219.37431640625,274.3981361816406L219.37431640625,333.0918361816406L239.25431640625,313.8818361816406L254.64231640625,328.7518361816406L208.49931640625,373.3318361816406L162.35701640625,328.7518361816406L177.74511640625002,313.8818361816406L197.62431640625,333.0918361816406L197.62431640625,274.3981361816406L219.37431640625,274.3981361816406ZM208.49931640625,200.99997618164062C247.15131640625,201.0017461816406,279.66931640625,186.78743618164063,284.12431640625,223.89063618164062C312.05131640625,231.25013618164064,330.51631640625,256.87903618164063,327.96831640625,284.74333618164064C325.42031640625,312.6078361816406,302.59031640625,334.70983618164064,273.76031640625,337.2228361816406L273.74931640625,316.4348361816406C273.78531640625,282.04673618164065,245.30231640625,253.97213618164062,209.72331640625,253.32723618164061C174.14441640625,252.6823361816406,144.59181640625,279.7051361816406,143.29311640625,314.07083618164063L143.24961640625,316.4348361816406L143.24961640625,337.2228361816406C114.41891640624999,334.71383618164066,91.58503640625,312.61283618164066,89.03418540625,284.7479361816406C86.48333640625,256.88283618164064,104.94761640625,231.25163618164063,132.87491640625,223.89063618164062C137.32211640625,186.78803618164062,169.84221640625,200.99997618164062,208.49931640625,200.99997618164062Z" fill="url(#master_svg4_1_1984)" fill-opacity="1"/></g></g><g filter="url(#master_svg5_1_2391)"><path d="M38,114L38,179Q38,179.7365,38.0361363,180.47199999999998Q38.0722726,181.2076,38.144458,181.9405Q38.216644,182.67340000000002,38.324705,183.4019Q38.432766,184.13,38.576441,184.853Q38.720117,185.575,38.899062,186.289Q39.07801,187.00400000000002,39.29179,187.709Q39.50557,188.413,39.75368,189.107Q40.00178,189.8,40.28361,190.48000000000002Q40.56544,191.161,40.88032,191.827Q41.1952,192.49200000000002,41.54236,193.142Q41.88953,193.791,42.26814,194.423Q42.64676,195.055,43.05591,195.667Q43.46507,196.279,43.90377,196.87099999999998Q44.34248,197.462,44.80969,198.03199999999998Q45.27689,198.601,45.77146,199.147Q46.266040000000004,199.692,46.7868,200.213Q47.30755,200.73399999999998,47.853229999999996,201.22899999999998Q48.3989,201.723,48.968199999999996,202.19Q49.5375,202.65800000000002,50.129,203.096Q50.7205,203.535,51.3329,203.94400000000002Q51.9452,204.353,52.5769,204.732Q53.208600000000004,205.11,53.8581,205.458Q54.5076,205.805,55.1733,206.12Q55.8391,206.435,56.5195,206.716Q57.1999,206.998,57.893299999999996,207.24599999999998Q58.5867,207.494,59.2915,207.708Q59.9962,207.922,60.7106,208.101Q61.425,208.28,62.1473,208.424Q62.8696,208.567,63.5981,208.675Q64.3266,208.78300000000002,65.0595,208.856Q65.7924,208.928,66.52799999999999,208.964Q67.2635,209,68,209L349,209Q349.736,209,350.472,208.964Q351.208,208.928,351.941,208.856Q352.673,208.78300000000002,353.402,208.675Q354.13,208.567,354.853,208.424Q355.575,208.28,356.289,208.101Q357.004,207.922,357.709,207.708Q358.413,207.494,359.107,207.24599999999998Q359.8,206.998,360.48,206.716Q361.161,206.435,361.827,206.12Q362.492,205.805,363.142,205.458Q363.791,205.11,364.423,204.732Q365.055,204.353,365.667,203.94400000000002Q366.279,203.535,366.871,203.096Q367.462,202.65800000000002,368.032,202.19Q368.601,201.723,369.147,201.22899999999998Q369.692,200.73399999999998,370.213,200.213Q370.734,199.692,371.229,199.147Q371.723,198.601,372.19,198.03199999999998Q372.658,197.462,373.096,196.87099999999998Q373.535,196.279,373.944,195.667Q374.353,195.055,374.732,194.423Q375.111,193.791,375.458,193.142Q375.805,192.49200000000002,376.12,191.827Q376.435,191.161,376.716,190.48000000000002Q376.998,189.8,377.246,189.107Q377.494,188.413,377.708,187.709Q377.922,187.00400000000002,378.101,186.289Q378.28,185.575,378.424,184.853Q378.567,184.13,378.675,183.4019Q378.783,182.67340000000002,378.856,181.9405Q378.928,181.2076,378.964,180.47199999999998Q379,179.7365,379,179L379,114Q379,113.2635,378.964,112.52799999999999Q378.928,111.7924,378.856,111.0595Q378.783,110.3266,378.675,109.5981Q378.567,108.86959999999999,378.424,108.1473Q378.28,107.425,378.101,106.7106Q377.922,105.9962,377.708,105.2915Q377.494,104.58670000000001,377.246,103.8933Q376.998,103.1999,376.716,102.5195Q376.435,101.8391,376.12,101.1733Q375.805,100.5076,375.458,99.85810000000001Q375.111,99.2086,374.732,98.5769Q374.353,97.9452,373.944,97.3329Q373.535,96.7205,373.096,96.129Q372.658,95.5375,372.19,94.9682Q371.723,94.3989,371.229,93.85323Q370.734,93.30755,370.213,92.7868Q369.692,92.26604,369.147,91.77146Q368.601,91.27689,368.032,90.80969Q367.462,90.34248,366.871,89.90377Q366.279,89.46507,365.667,89.05591Q365.055,88.64676,364.423,88.26814Q363.791,87.88953,363.142,87.54236Q362.492,87.1952,361.827,86.88032Q361.161,86.56544,360.48,86.28361Q359.8,86.00178,359.107,85.75368Q358.413,85.50557,357.709,85.29179Q357.004,85.07801,356.289,84.899062Q355.575,84.720117,354.853,84.576441Q354.13,84.432766,353.402,84.324705Q352.673,84.216644,351.941,84.144458Q351.208,84.0722726,350.472,84.0361363Q349.736,84,349,84L68,84Q67.2635,84,66.52799999999999,84.0361363Q65.7924,84.0722726,65.0595,84.144458Q64.3266,84.216644,63.5981,84.324705Q62.8696,84.432766,62.1473,84.576441Q61.425,84.720117,60.7106,84.899062Q59.9962,85.07801,59.2915,85.29179Q58.5867,85.50557,57.893299999999996,85.75368Q57.1999,86.00178,56.5195,86.28361Q55.8391,86.56544,55.1733,86.88032Q54.5076,87.1952,53.8581,87.54236Q53.208600000000004,87.88953,52.5769,88.26814Q51.9452,88.64676,51.3329,89.05591Q50.7205,89.46507,50.129,89.90377Q49.5375,90.34248,48.968199999999996,90.80969Q48.3989,91.27689,47.853229999999996,91.77146Q47.30755,92.26604,46.7868,92.7868Q46.266040000000004,93.30755,45.77146,93.85323Q45.27689,94.3989,44.80969,94.9682Q44.34248,95.5375,43.90377,96.129Q43.46507,96.7205,43.05591,97.3329Q42.64676,97.9452,42.26814,98.5769Q41.88953,99.2086,41.54236,99.85810000000001Q41.1952,100.5076,40.88032,101.1733Q40.56544,101.8391,40.28361,102.5195Q40.00178,103.1999,39.75368,103.8933Q39.50557,104.58670000000001,39.29179,105.2915Q39.07801,105.9962,38.899062,106.7106Q38.720117,107.425,38.576441,108.1473Q38.432766,108.86959999999999,38.324705,109.5981Q38.216644,110.3266,38.144458,111.0595Q38.0722726,111.7924,38.0361363,112.52799999999999Q38,113.2635,38,114ZM137.832,162.98399999999998L137.832,157.152L117.096,157.152L117.096,147.216L133.94400000000002,147.216L133.94400000000002,141.528L117.096,141.528L117.096,131.304L135.6,131.304L135.6,125.688L123.504,125.688Q126.672,121.00800000000001,130.05599999999998,115.32L124.44,112.8Q121.056,119.208,117.168,125.688L105.936,125.688L109.896,123.24000000000001Q106.8,117.912,103.2,113.088L98.304,116.03999999999999Q101.256,120.144,104.568,125.688L93.98400000000001,125.688L93.98400000000001,131.304L111.12,131.304L111.12,141.528L94.632,141.528L94.632,147.216L111.12,147.216L111.12,157.152L90.672,157.152L90.672,162.98399999999998L111.12,162.98399999999998L111.12,179.256L117.096,179.256L117.096,162.98399999999998L137.832,162.98399999999998ZM163.752,127.77600000000001L169.368,127.77600000000001L169.368,124.176L184.992,124.176L184.992,127.848L190.464,127.848L190.464,124.176L208.896,124.176L208.896,119.28L190.464,119.28L190.464,113.664L184.992,113.664L184.992,119.28L169.368,119.28L169.368,113.736L163.752,113.736L163.752,119.28L145.608,119.28L145.608,124.176L163.752,124.176L163.752,127.77600000000001ZM82.24799999999999,124.644Q86.208,127.632,88.8,129.864L91.968,125.03999999999999Q89.44800000000001,122.952,85.38,119.964Q81.312,116.976,78.936,115.536L75.768,120.144Q78.288,121.656,82.24799999999999,124.644ZM271.89599999999996,121.08L259.152,121.08L259.152,174L272.328,174Q282.552,174,288.852,170.112Q295.152,166.224,297.888,160.06799999999998Q300.624,153.912,300.624,146.64Q300.624,136.2,294.252,128.64Q287.88,121.08,271.89599999999996,121.08ZM316.824,121.08L308.688,121.08L308.688,174L332.016,174L332.016,166.8L316.824,166.8L316.824,121.08ZM149.28,146.208Q155.688,141.168,159.648,135.696L170.232,135.696Q168.72,138.792,166.56,141.528L157.92000000000002,140.232L156.696,144.768L162.38400000000001,145.632Q156.98399999999998,150.096,148.2,153.264L151.07999999999998,157.872Q161.808,153.336,168.504,146.64L178.152,148.224Q174.84,151.536,168.864,155.352L172.248,159.24Q179.664,154.272,183.696,149.232L186.792,149.808Q192.84,150.888,193.416,151.03199999999998L194.496,146.136Q193.992,146.064,191.112,145.56L186.792,144.84Q189.024,140.952,190.608,135.696L198.96,135.696Q198.528,142.608,197.376,148.224Q196.8,150.816,196.188,151.93200000000002Q195.576,153.048,194.424,153.44400000000002Q193.272,153.84,190.824,153.84Q189.168,153.84,187.188,153.624Q185.208,153.40800000000002,184.56,153.336L185.568,158.16Q190.32,158.44799999999998,192.696,158.44799999999998Q196.152,158.44799999999998,198.096,157.692Q200.04,156.936,201.12,155.064Q202.2,153.192,202.848,149.664Q203.352,146.712,204.036,140.7Q204.72,134.688,204.864,131.16L162.6,131.16L163.68,129.216L158.928,127.344Q156.40800000000002,131.808,153.24,135.336Q150.072,138.864,145.464,142.32L149.28,146.208ZM287.628,161.22Q283.128,166.872,273.192,166.872L267.216,166.872L267.216,128.136L273.192,128.136Q283.05600000000004,128.136,287.592,133.392Q292.128,138.648,292.128,147Q292.128,155.56799999999998,287.628,161.22ZM82.28399999999999,136.812Q78.072,133.752,75.048,131.88L71.952,136.632Q74.616,138.288,78.828,141.38400000000001Q83.03999999999999,144.48,86.064,147L89.304,142.248Q86.49600000000001,139.872,82.28399999999999,136.812ZM185.352,135.696Q183.768,140.664,181.608,143.976L172.032,142.392Q174.408,139.152,175.848,135.696L185.352,135.696ZM83.328,152.04000000000002Q79.152,165.144,73.896,176.44799999999998L79.584,178.392Q85.056,166.584,88.872,154.272L83.328,152.04000000000002ZM245.616,152.47199999999998L220.92,152.47199999999998L220.92,159.38400000000001L245.616,159.38400000000001L245.616,152.47199999999998ZM185.424,165.216Q181.536,161.04000000000002,178.008,157.8L174.336,161.4L181.536,168.744L185.424,165.216ZM189.06,165.648Q188.952,167.51999999999998,188.88,168.6Q188.808,170.54399999999998,188.484,171.48000000000002Q188.16,172.416,187.296,172.812Q186.432,173.208,184.632,173.424Q181.752,173.712,178.08,173.712Q174.48,173.712,171.528,173.424Q169.152,173.208,168.36,172.164Q167.568,171.12,167.568,168.168L167.568,158.51999999999998L161.952,158.51999999999998L161.952,169.752Q161.952,174.216,163.716,176.16Q165.48000000000002,178.10399999999998,169.512,178.464Q174.048,178.824,177.72,178.824Q181.392,178.824,185.928,178.464Q190.248,178.10399999999998,192.048,176.55599999999998Q193.848,175.00799999999998,194.136,170.904Q194.28,169.248,194.568,164.352L189.096,163.128Q189.168,163.776,189.06,165.648ZM209.904,173.136Q206.376,167.44799999999998,200.544,159.024L196.008,161.47199999999998Q197.664,163.92000000000002,200.328,168.24Q202.992,172.56,204.936,175.872L209.904,173.136ZM150.108,167.44799999999998Q147.84,171.336,145.392,174.576L150.50400000000002,177.45600000000002Q152.808,174.072,155.112,169.89600000000002Q157.416,165.72,159,162.264L153.816,160.248Q152.376,163.56,150.108,167.44799999999998Z" fill-rule="evenodd" fill="url(#master_svg6_1_7422)" fill-opacity="1"/></g><g><path d="M349.1632,340.659L351.0105,340.659L351.0105,346.9526Q351.0105,347.5035,351.2471,347.6524Q351.4838,347.8009,352.3031,347.8009Q352.4816,347.8009,352.9826,347.8009Q353.4836,347.8009,354.0836,347.8009Q354.6836,347.8009,355.21569999999997,347.8009Q355.7483,347.8009,355.9946,347.8009Q356.51030000000003,347.8009,356.7682,347.5702Q357.0263,347.3396,357.132,346.6204Q357.2381,345.9011,357.2861,344.4484Q357.4849,344.5804,357.7781,344.7202Q358.0714,344.8598,358.3785,344.9685Q358.6856,345.0772,358.9463,345.1534Q358.8368,346.8604,358.575,347.7926Q358.3136,348.7245,357.7432,349.0811Q357.1729,349.4381,356.1401,349.4381Q355.9924,349.4381,355.5799,349.4381Q355.1674,349.4381,354.6409,349.4381Q354.11469999999997,349.4381,353.5856,349.4381Q353.0569,349.4381,352.6564,349.4381Q352.2559,349.4381,352.1077,349.4381Q350.9389,349.4381,350.3018,349.227Q349.665,349.0163,349.4141,348.4695Q349.1632,347.9231,349.1632,346.9714L349.1632,340.659ZM343.96613,327.77513L345.93338,328.15313Q345.105,329.5845,343.9755,331.07063Q342.84637,332.5568,341.43563,333.9817Q340.02488,335.4064,338.27813,336.6476Q338.14575,336.4301,337.92338,336.1823Q337.701,335.9344,337.45238,335.7008Q337.20413,335.4671,336.986625,335.3348Q338.62913,334.2349,339.96712,332.9329Q341.30513,331.63087,342.31612,330.29588Q343.3275,328.9605,343.96613,327.77513ZM341.478,335.5177L341.478,339.7174L355.1666,339.7174L355.1666,335.5177L341.478,335.5177ZM339.687,333.8951L357.0566,333.8951L357.0566,341.3546L339.687,341.3546L339.687,333.8951ZM350.541,329.66662L350.9377,329.66662L351.2408,329.58113L352.4738,330.37988Q352.0376,331.16662,351.4339,332.0216Q350.83050000000003,332.8763,350.1818,333.6615Q349.533,334.4464,348.9248,335.049Q348.675,334.8461,348.2876,334.5982Q347.9003,334.3504,347.5931,334.1996Q348.15409999999997,333.6488,348.7275,332.9107Q349.3009,332.1724,349.7835,331.4025Q350.2661,330.63225,350.541,330.02175L350.541,329.66662ZM343.57763,329.66662L351.0697,329.66662L351.0697,331.1865L342.615,331.1865L343.57763,329.66662ZM347.2275,334.9583L349.1231,334.9583Q348.9698,336.9967,348.6649,338.856Q348.3604,340.7149,347.715,342.3645Q347.0696,344.0138,345.9015,345.4005Q344.73338,346.7869,342.87713,347.8732Q341.02087,348.9592,338.27813,349.6969Q338.14575,349.347,337.84538,348.8902Q337.545,348.4335,337.24688,348.1597Q339.87225,347.517,341.6175,346.5491Q343.36312,345.5809,344.42475,344.3314Q345.48675000000003,343.0815,346.0492,341.6074Q346.6117,340.1329,346.8596,338.4533Q347.1075,336.7736,347.2275,334.9583ZM364.2135,332.409L379.29110000000003,332.409L379.29110000000003,330.68438L362.5837,330.68438L362.5837,329.36513L380.9565,329.36513L380.9565,333.7043L364.2135,333.7043L364.2135,332.409ZM363.8317,335.49L381.2389,335.49L381.2389,336.7849L363.4567,336.7849L363.8317,335.49ZM380.7019,335.49L382.3849,335.49Q382.3849,335.49,382.3729,335.7067Q382.3609,335.9235,382.3463,336.0997Q382.23040000000003,337.2787,382.0837,337.9076Q381.9371,338.5365,381.645,338.8275Q381.4155,339.0465,381.1245,339.144Q380.8335,339.2411,380.4697,339.2599Q380.1589,339.2839,379.5859,339.2692Q379.0133,339.2546,378.3716,339.2306Q378.3476,338.9651,378.2528,338.6167Q378.1582,338.26800000000003,378.03,338.0021Q378.5895,338.0648,379.0459,338.0816Q379.5023,338.0981,379.6943,338.0887Q379.8971,338.0887,380.0243,338.0648Q380.1517,338.0407,380.2477,337.9358Q380.397,337.7824,380.5009,337.281Q380.6048,336.7796,380.7019,335.7037L380.7019,335.49ZM368.5402,327.846L370.1816,327.846L370.1816,332.7499Q370.1816,334.0541,369.9135,335.2489Q369.6454,336.4436,368.8425,337.4809Q368.0396,338.5181,366.4714,339.372Q364.9035,340.2255,362.2939,340.8626Q362.223,340.6635,362.0741,340.4014Q361.9253,340.1389,361.7456,339.8813Q361.566,339.6232,361.4096,339.4669Q363.7924,338.9062,365.2207,338.1799Q366.6495,337.4535,367.362,336.58389999999997Q368.0749,335.7142,368.30740000000003,334.7494Q368.5402,333.7845,368.5402,332.7311L368.5402,327.846ZM374.0182,327.846L375.7305,327.846L375.7305,339.3049L374.0182,339.3049L374.0182,327.846ZM364.4681,339.9034L379.7062,339.9034L379.7062,346.4164L377.8815,346.4164L377.8815,341.4229L366.2179,341.4229L366.2179,346.5818L364.4681,346.5818L364.4681,339.9034ZM371.3535,342.41700000000003L373.1696,342.41700000000003Q372.8299,344.0779,372.1316,345.3277Q371.4338,346.5776,370.16020000000003,347.4731Q368.8867,348.3682,366.8539,348.9622Q364.821,349.5562,361.8109,349.9151Q361.7591,349.6976,361.6313,349.419Q361.5037,349.1404,361.35,348.864Q361.1966,348.5876,361.0403,348.4031Q363.8711,348.1245,365.7364,347.6528Q367.6016,347.181,368.7356,346.4674Q369.8696,345.7537,370.4775,344.757Q371.0854,343.76030000000003,371.3535,342.41700000000003ZM372.5062,346.6136L373.44259999999997,345.38779999999997Q374.5718,345.6769,375.8389,346.0575Q377.1064,346.4377,378.3731,346.8592Q379.6399,347.2804,380.7525,347.7015Q381.8655,348.1226,382.67629999999997,348.5025L381.6836,349.9088Q380.901,349.5289,379.8116,349.0935Q378.7223,348.6585,377.4724,348.2111Q376.22249999999997,347.7638,374.9385,347.3501Q373.6545,346.9361,372.5062,346.6136ZM363.543,332.4184L365.175,332.4184Q365.0216,333.5243,364.8368,334.7288Q364.6523,335.9329,364.4749,336.7849L362.8043,336.7849Q363.0056,335.8849,363.2141,334.6879Q363.423,333.4909,363.543,332.4184ZM342.23438,371.5177L356.2219,371.5177L356.2219,382.9714L354.4309,382.9714L354.4309,372.9533L343.95975,372.9533L343.95975,382.9714L342.23438,382.9714L342.23438,371.5177ZM337.40887,368.343L358.5911,368.343L358.5911,369.8396L337.40887,369.8396L337.40887,368.343ZM339.15825,365.1217L357.2017,365.1217L357.2017,366.5569L339.15825,366.5569L339.15825,365.1217ZM343.39237,374.59159999999997L355.1786,374.59159999999997L355.1786,375.8542L343.39237,375.8542L343.39237,374.59159999999997ZM343.39237,377.5511L355.1786,377.5511L355.1786,378.7995L343.39237,378.7995L343.39237,377.5511ZM343.233,380.5736L355.188,380.5736L355.188,382.0091L343.233,382.0091L343.233,380.5736ZM355.8195,361.0309L356.9678,362.3317Q355.287,362.6636,353.1502,362.8999Q351.0135,363.1357,348.6375,363.2876Q346.2615,363.4395,343.84425,363.5194Q341.427,363.59929999999997,339.195,363.60450000000003Q339.171,363.3015,339.06188,362.8969Q338.95312,362.4922,338.82488,362.2076Q341.01825,362.1784,343.40025,362.106Q345.78225,362.0332,348.0874,361.8889Q350.3925,361.7441,352.3871,361.5322Q354.3818,361.3204,355.8195,361.0309ZM345.9795,362.6734L347.847,363.0713Q347.0456,365.9636,345.75412,368.6805Q344.463,371.3974,342.54338,373.6781Q340.62413,375.95889999999997,337.93837,377.5669Q337.81575,377.364,337.61475,377.0996Q337.41375,376.8349,337.20337,376.5848Q336.993,376.3343,336.80325,376.1591Q339.36188,374.6929,341.1705,372.5509Q342.97913,370.4089,344.15662,367.8645Q345.3345,365.3197,345.9795,362.6734ZM365.2575,367.0534L381.6836,367.0534L381.6836,368.9059L365.2575,368.9059L365.2575,367.0534ZM373.0088,360.87L374.9123,360.87L374.9123,367.8983L373.0088,367.8983L373.0088,360.87ZM364.3121,361.4629L366.1834,361.4629L366.1834,369.4567Q366.1834,371.2463,366.0585,373.0493Q365.934,374.8519,365.5504,376.5848Q365.1671,378.31759999999997,364.3931,379.9286Q363.6191,381.5396,362.3201,382.9598Q362.1784,382.7378,361.9328,382.47860000000003Q361.6871,382.2195,361.4153,381.9668Q361.1434,381.7144,360.91610000000003,381.5636Q362.4536,379.85699999999997,363.1714,377.8639Q363.8895,375.87080000000003,364.1006,373.7261Q364.3121,371.5815,364.3121,369.462L364.3121,361.4629ZM365.1855,372.7369L377.9704,372.7369L377.9704,382.9286L376.0241,382.9286L376.0241,374.5939L365.1855,374.5939L365.1855,372.7369Z" fill="#FFFFFF" fill-opacity="1"/></g></g></svg>